<svg width="447" height="507" viewBox="0 0 447 507" fill="none" xmlns="http://www.w3.org/2000/svg">
<path d="M266.59 113.388L280.278 39.6875" stroke="black" stroke-width="34.9845"/>
<path d="M173.707 503.63L187.442 429.943" stroke="black" stroke-width="34.9845"/>
<path d="M58.7048 277.838C62.75 264.772 69.2821 253.74 78.3009 244.741C87.3198 235.741 98.7065 229.16 112.461 224.996C126.263 220.678 142.261 219.061 160.455 220.146C178.85 221.124 199.346 225.112 221.942 232.107C238.697 237.295 255.917 243.974 273.601 252.144C291.44 260.362 309.411 270.053 327.516 281.217C329.413 272.371 329.251 263.646 327.03 255.041C324.856 246.283 320.582 238.053 314.207 230.352C308.033 222.544 299.788 215.444 289.47 209.049C279.307 202.702 267.154 197.339 253.013 192.96C245.327 190.581 236.73 188.425 227.221 186.491C217.713 184.558 207.754 182.991 197.345 181.79C186.936 180.589 176.461 179.872 165.92 179.641C155.533 179.457 145.595 180.002 136.104 181.275L132.699 118.821C144.14 118.32 156.178 118.341 168.812 118.884C181.6 119.474 194.476 120.596 207.44 122.252C220.451 123.753 233.295 125.793 245.974 128.37C258.652 130.948 270.755 134.021 282.284 137.591C333.164 153.343 366.957 178.039 383.662 211.68C400.367 245.32 400.416 288.963 383.806 342.61L347.114 461.126L278.864 439.995L286.788 414.402C278.432 416.363 269.456 417.879 259.859 418.951C250.416 420.07 240.347 420.49 229.653 420.211C218.958 419.933 207.686 418.801 195.835 416.816C184.09 415.033 171.915 412.19 159.311 408.288C138.098 401.72 120.135 393.632 105.423 384.024C90.8638 374.463 79.4655 363.943 71.2277 352.465C62.9898 340.986 57.7935 328.934 55.6387 316.307C53.6851 303.573 54.7072 290.751 58.7048 277.838ZM131.358 297.805C129.978 302.263 129.798 306.924 130.819 311.788C131.887 316.499 134.458 321.253 138.531 326.052C142.652 330.696 148.323 335.232 155.544 339.657C162.966 343.976 172.288 347.873 183.509 351.347C195.499 355.059 207.438 357.576 219.325 358.899C231.213 360.221 242.546 360.613 253.325 360.076C264.103 359.539 274.126 358.178 283.394 355.993C292.661 353.809 300.669 351.066 307.418 347.766L311.13 335.776C301.582 329.619 291.968 323.947 282.287 318.76C272.761 313.621 263.476 309.062 254.432 305.083C245.59 300.997 237.09 297.439 228.932 294.408C220.928 291.425 213.851 288.981 207.702 287.078C194.944 283.128 184.076 280.689 175.098 279.763C166.12 278.836 158.566 279.024 152.435 280.327C146.352 281.475 141.64 283.638 138.298 286.815C134.956 289.991 132.643 293.655 131.358 297.805Z" fill="url(#paint0_linear_6433_5326)"/>
<defs>
<linearGradient id="paint0_linear_6433_5326" x1="125.943" y1="127.518" x2="438.179" y2="202.56" gradientUnits="userSpaceOnUse">
<stop offset="0.2049"/>
</linearGradient>
</defs>
</svg>
